<?xml version="1.0" encoding="UTF-8" standalone="no"?>
<svg
   xmlns:dc="http://purl.org/dc/elements/1.1/"
   xmlns:cc="http://creativecommons.org/ns#"
   xmlns:rdf="http://www.w3.org/1999/02/22-rdf-syntax-ns#"
   xmlns:svg="http://www.w3.org/2000/svg"
   xmlns="http://www.w3.org/2000/svg"
   xmlns:xlink="http://www.w3.org/1999/xlink"
   xmlns:sodipodi="http://sodipodi.sourceforge.net/DTD/sodipodi-0.dtd"
   xmlns:inkscape="http://www.inkscape.org/namespaces/inkscape"
   width="100"
   height="58"
   viewBox="0 0 100 58.004452"
   version="1.1"
   id="svg4"
   sodipodi:docname="Disney+ logo.svg"
   inkscape:version="0.92.2 (5c3e80d, 2017-08-06)">
  <title
     id="title5586">Disney+ logo</title>
  <metadata
     id="metadata10">
    <rdf:RDF>
      <cc:Work
         rdf:about="">
        <dc:format>image/svg+xml</dc:format>
        <dc:type
           rdf:resource="http://purl.org/dc/dcmitype/StillImage" />
        <dc:title>Disney+ logo</dc:title>
        <cc:license
           rdf:resource="http://scripts.sil.org/OFL" />
      </cc:Work>
      <cc:License
         rdf:about="http://scripts.sil.org/OFL">
        <cc:permits
           rdf:resource="http://scripts.sil.org/pub/OFL/Reproduction" />
        <cc:permits
           rdf:resource="http://scripts.sil.org/pub/OFL/Distribution" />
        <cc:permits
           rdf:resource="http://scripts.sil.org/pub/OFL/Embedding" />
        <cc:permits
           rdf:resource="http://scripts.sil.org/pub/OFL/DerivativeWorks" />
        <cc:requires
           rdf:resource="http://scripts.sil.org/pub/OFL/Notice" />
        <cc:requires
           rdf:resource="http://scripts.sil.org/pub/OFL/Attribution" />
        <cc:requires
           rdf:resource="http://scripts.sil.org/pub/OFL/ShareAlike" />
        <cc:requires
           rdf:resource="http://scripts.sil.org/pub/OFL/DerivativeRenaming" />
        <cc:requires
           rdf:resource="http://scripts.sil.org/pub/OFL/BundlingWhenSelling" />
      </cc:License>
    </rdf:RDF>
  </metadata>
  <defs
     id="defs8">
    <linearGradient
       inkscape:collect="always"
       id="linearGradient5436">
      <stop
         style="stop-color:#000000;stop-opacity:1;"
         offset="0"
         id="stop5432" />
      <stop
         style="stop-color:#000000;stop-opacity:0;"
         offset="1"
         id="stop5434" />
    </linearGradient>
    <linearGradient
       inkscape:collect="always"
       xlink:href="#linearGradient5436"
       id="linearGradient5438"
       x1="241.89407"
       y1="1814.8752"
       x2="-177.07512"
       y2="1693.2391"
       gradientUnits="userSpaceOnUse"
       gradientTransform="translate(-287.416,109.47259)" />
    <linearGradient
       inkscape:collect="always"
       xlink:href="#linearGradient980"
       id="linearGradient982"
       x1="-496.53412"
       y1="1010.311"
       x2="-820.2652"
       y2="966.40393"
       gradientUnits="userSpaceOnUse"
       gradientTransform="matrix(0.18450196,0,0,0.18450196,176.95954,-162.35001)" />
    <linearGradient
       inkscape:collect="always"
       id="linearGradient980">
      <stop
         style="stop-color:#0cffff;stop-opacity:0.99607843"
         offset="0"
         id="stop976" />
      <stop
         id="stop986"
         offset="0.47445449"
         style="stop-color:#0069e3;stop-opacity:0.61176473" />
      <stop
         style="stop-color:#0066e2;stop-opacity:0;"
         offset="1"
         id="stop978" />
    </linearGradient>
    <filter
       inkscape:collect="always"
       style="color-interpolation-filters:sRGB"
       id="filter5554"
       x="-0.033062816"
       width="1.0661256"
       y="-0.087556407"
       height="1.1751128">
      <feGaussianBlur
         inkscape:collect="always"
         stdDeviation="4.9242708"
         id="feGaussianBlur5556" />
    </filter>
    <filter
       inkscape:collect="always"
       style="color-interpolation-filters:sRGB"
       id="filter5570"
       x="-0.040344633"
       width="1.0806893"
       y="-0.11700164"
       height="1.2340033">
      <feGaussianBlur
         inkscape:collect="always"
         stdDeviation="8.2541147"
         id="feGaussianBlur5572" />
    </filter>
  </defs>
  <sodipodi:namedview
     pagecolor="#ffffff"
     bordercolor="#000000"
     borderopacity="0.39215686"
     objecttolerance="1"
     gridtolerance="1"
     guidetolerance="1"
     inkscape:pageopacity="0"
     inkscape:pageshadow="2"
     inkscape:window-width="1366"
     inkscape:window-height="705"
     id="namedview6"
     showgrid="false"
     inkscape:zoom="4.9301579"
     inkscape:cx="17.80306"
     inkscape:cy="29.632707"
     inkscape:window-x="-8"
     inkscape:window-y="-8"
     inkscape:window-maximized="1"
     inkscape:current-layer="svg4"
     inkscape:pagecheckerboard="false"
     inkscape:showpageshadow="false"
     borderlayer="true" />
  <path
     style="opacity:1;fill:#000000;fill-opacity:0.70588235;stroke:none;stroke-width:0;stroke-miterlimit:4;stroke-dasharray:none;stroke-opacity:1;filter:url(#filter5570)"
     d="m -327.15629,1589.397 c -9.93906,-0.01 -20.07919,1.3251 -29.75032,4.7524 0,0 -2.79157,-0.1181 -5.23478,3.7248 -2.6177,3.7246 -4.8285,6.2669 -3.4905,9.0456 1.338,2.8379 8.14495,4.0797 14.25305,1.9514 0,0 2.79103,-1.775 -0.69928,-2.9573 -3.4903,-1.1825 -5.40861,-1.4767 -5.40861,-1.4767 0,0 -1.74586,-0.355 0.17384,-1.3009 1.74519,-0.8868 21.98965,-7.6276 57.70755,1.8908 35.77588,9.2229 84.34933,38.5485 82.89502,69.1733 -1.33795,30.5655 -48.45683,31.9243 -48.45683,31.9243 0,0 -9.65779,0.5317 -22.57204,-1.9513 -0.29087,-9.9915 -0.69733,-27.1352 -0.69733,-37.4814 18.44062,0 36.99633,3.1324 38.50882,7.8619 0,0 0.93229,2.0698 -3.25611,4.139 -3.7812,1.6555 -6.74815,3.0746 -3.4905,4.6117 0,0 4.65252,2.1878 7.56112,1.9513 2.90862,-0.2366 10.35551,-3.6672 11.05359,-11.9443 0.75623,-8.395 -8.7832,-15.8424 -23.09357,-18.3256 -10.87823,-2.1282 -16.81307,-2.8384 -26.58602,-2.3654 -0.11633,-9.1047 -1.33687,-20.5152 -3.31472,-23.1756 -2.44324,-3.5473 -5.17834,-8.2763 -7.33063,-2.9553 -1.80341,4.4341 -3.19985,14.4837 -3.78154,27.4903 -15.0085,2.5421 -31.76214,8.9873 -36.82314,15.3723 -5.41,7.0946 3.8e-4,12.828 0.58207,13.4191 0.34901,0.5912 11.4021,16.7907 35.2527,27.7873 0.46541,4.3749 1.27963,9.1646 2.90844,11.8251 3.72299,5.5573 10.47161,1.6549 11.28601,0.709 0.69809,-0.7095 1.16237,-2.5417 1.45324,-6.9165 10.58737,2.8376 30.01831,5.7933 50.61131,-0.5918 v 0.058 c 31.12216,-9.5776 35.54189,-29.2644 36.3563,-40.9114 0.93077,-11.824 -7.67889,-42.2723 -58.17243,-68.1673 0,0 -32.94803,-17.1391 -68.44471,-17.1673 z m 152.10543,8.3248 c -1.09983,-0.018 -1.81069,0.033 -1.81069,0.033 -23.26892,1.951 -30.94948,18.3866 -31.99659,22.7616 -0.81441,3.7246 -0.46485,9.2824 4.07257,13.4209 -1.33794,3.6066 -0.23293,5.2035 0.23245,6.0904 0.29085,1.1824 2.32775,4.9654 4.65464,4.7288 1.51247,-0.2365 2.73388,-1.3597 4.7699,-5.0844 4.6538,2.0693 10.12206,2.9565 18.14983,0.1778 v 0.1778 c 12.44888,-4.3159 24.66595,-16.85 24.66595,-26.9006 0.23269,-10.0506 -10.82114,-10.0496 -10.82114,-10.0496 h -0.34963 c -1.48339,-4.6113 -8.26784,-5.3004 -11.56729,-5.3559 z m -10.24689,11.9775 c -7.27154,5.0844 -12.09907,11.5873 -14.83316,15.7259 -1.10528,-1.5373 -0.9889,-3.8432 1.33799,-7.6861 3.19949,-5.0844 7.91062,-7.4485 13.49517,-8.0398 z m 20.75354,1.3654 c 5.80333,0.1927 3.27175,7.0884 3.27175,7.0884 -6.51529,13.3613 -21.05862,13.9522 -29.37726,12.415 5.41002,-8.2178 16.69557,-18.1509 24.02528,-19.3334 0.79078,-0.1386 1.4799,-0.1899 2.08023,-0.17 z m 245.040293,23.2674 c -1.89124,0 -3.57154,1.5051 -3.41432,3.3596 0.85895,10.137 1.64353,19.4248 2.18766,28.553 h -26.40437 c -1.89126,0 -3.41432,1.4986 -3.41432,3.3596 v 5.8794 c 0,1.861 1.52306,3.3576 3.41432,3.3576 h 26.99035 c 0.278,8.8849 0.28376,17.8433 -0.21291,27.4534 -0.0961,1.8585 1.52311,3.3596 3.41433,3.3596 h 6.18602 c 1.89124,0 3.27949,-1.5034 3.41433,-3.3596 0.66326,-9.1293 0.9414,-18.3006 0.80084,-27.4534 h 28.109577 c 1.8912,0 3.41432,-1.4966 3.41432,-3.3576 v -5.8794 c 0,-1.861 -1.52312,-3.3596 -3.41432,-3.3596 H 92.924763 c -0.60225,-9.5752 -1.6725,-19.0988 -3.46902,-28.553 -0.34762,-1.8292 -1.52112,-3.3596 -3.41237,-3.3596 z m -167.003048,7.942 c -0.69806,0 -1.46903,0.2962 -1.7599,1.4787 -0.63988,2.6014 0.29104,5.3207 0.29104,5.3207 6.39895,21.2836 7.68028,33.8756 7.68028,33.8756 0,0 0.23123,3.7839 -0.46684,3.9613 -0.46538,0.4728 -1.04695,-0.1172 -1.04695,-0.1172 -0.69807,0.059 -7.56113,-11.5888 -7.56113,-11.5888 l -1.28135,-2.2463 c -7.5624,-12.238 -12.041935,-16.3763 -12.041935,-16.3763 -1.04711,-1.0641 -3.83835,-3.902 -7.32869,0 -3.3158,3.8429 -5.9339,16.2576 -6.98101,27.9045 -0.93075,11.6469 -0.23222,18.3285 1.3966,21.1071 1.97787,2.7787 5.46897,3.783 8.37759,1.4181 3.19948,-2.4239 2.50055,-17.7366 3.08227,-25.5997 0.4072,-7.9223 1.16416,-6.5024 1.16416,-6.5024 0.69808,-0.2365 4.187825,6.9752 4.187825,6.9752 0,0 9.36642,19.3923 15.29999,22.2302 5.81723,2.7787 10.64446,-1.7744 12.38963,-6.0903 h 0.0586 c 1.745148,-4.3158 4.886208,-18.7998 0.23243,-34.7624 -4.71196,-15.9628 -14.36829,-20.693 -14.36829,-20.693 0,0 -0.62625,-0.295 -1.32432,-0.295 z m 89.5537478,6.2778 c -1.05777,-0.051 -2.48456996,1.172 -2.48456996,1.172 -15.70651984,14.4256 -18.03263984,30.387 -18.03263984,30.387 -1.4543,8.6318 0.34886,14.781 2.90844,18.9195 -8.78401,19.037 -13.08819,35.5917 -11.92475,45.4059 1.16345,7.5084 6.39892,12.8283 9.5984,14.0108 3.19947,1.3006 3.78154,-2.6603 3.78154,-2.6603 2.61775,-20.2786 7.1549798,-33.8181 12.50681984,-47.1795 l 0.11524,0.061 C 15.978023,1712.452 28.311133,1696.194 32.674053,1688.3309 c 5.52636,-9.9323 5.52639,-27.0781 -1.86147,-32.399 -11.63447,-8.2769 -30.42415016,17.8541 -38.6846102,30.7427 -1.22161,-6.5626 3.14087,-14.9583 3.14087,-14.9583 0,0 6.98197,-12.2973 7.91271,-14.7804 1.0471,-2.6013 1.57084,-7.6849 0.29104,-8.2761 -0.13089,-0.066 -0.2747,-0.1001 -0.42581,-0.1074 z m -144.7103228,1.926 c -2.19328,0.015 -3.61161,0.074 -3.61161,0.074 -8.26047,0.7094 -27.28338,4.1368 -29.95933,13.0049 -2.55957,8.3951 -0.23243,11.4697 -0.23243,11.4697 2.44323,4.3158 18.79119,4.0803 23.15411,4.3167 4.59561,0.1773 16.46274,1.655 20.53479,4.0198 4.13023,2.5423 1.39463,5.6762 1.39463,5.6762 -6.80616,7.7448 -29.66792,8.9861 -35.48514,5.5571 -2.3269,-1.5963 -2.907,-3.1334 -0.58012,-5.7349 2.38505,-2.7786 10.06273,1.2996 9.19015,1.0041 -0.93076,-0.532 3.72401,2.5436 10.00663,2.7209 6.51529,0.1183 10.99362,-2.247 11.34267,-4.6117 0.23267,-2.1875 -5.58442,-4.3168 -5.58442,-4.3168 -19.37136,-5.4982 -26.9337,-0.7676 -26.9337,-0.7676 -10.52919,6.7398 -2.73458,15.6087 -2.73458,15.6087 17.04447,18.4458 43.4556,6.3848 46.53872,3.7834 2.9668,-2.7787 4.30391,-5.4988 4.42026,-13.1846 0.11635,-7.5082 -3.08227,-10.8192 -3.08227,-10.8192 -5.58453,-6.9762 -20.82583,-7.0942 -25.36327,-7.0942 -4.1884,-0.2366 -13.03086,-1.4197 -15.24141,-1.8928 -2.0942,-0.4139 -0.81451,-2.0685 -0.81451,-2.0685 1.91968,-2.7788 40.89572,-5.5571 40.89572,-5.5571 4.01388,-0.6503 4.42121,-2.9563 5.35197,-4.6116 v -0.059 c 0.69806,-1.5963 0.11524,-2.6604 0.11524,-2.6604 -3.18492,-3.5473 -16.74227,-3.9021 -23.3221,-3.8577 z m 113.166883,0.031 c -13.85738,0.024 -31.9849,3.3684 -34.05729,4.4769 -2.0942,0.946 -1.86142,2.4826 0.81451,6.0298 2.90862,3.6655 7.85411,3.3693 7.85411,3.3693 l -4.36361,9.1043 c -3.49033,0.2956 -4.65465,1.3008 -4.65465,1.3008 -2.03604,2.3649 0.69927,8.8679 0.69927,8.8679 0,0 -6.10787,13.8948 -1.57044,21.2849 4.71196,7.7448 10.35432,7.3892 10.35432,7.3892 10.70372,0.7686 28.3879,-10.7002 29.31866,-14.4249 0.81441,-3.0742 -1.97899,-6.5031 -4.42222,-7.0943 -2.32689,-0.473 -20.01103,2.956 -22.10522,3.5471 -2.26872,0.5913 -1.27939,-1.5372 -1.27939,-1.5372 l 2.73458,-9.3406 c 0,0 16.86922,-0.7698 19.37063,-1.1836 2.15237,-0.4138 2.32831,-2.0099 2.32831,-2.0099 0,0 0.29018,-2.7194 0.17384,-5.3207 -0.23271,-2.5423 -2.32636,-2.3655 -2.32636,-2.3655 -6.5153,-0.6504 -15.41719,0.1192 -15.41719,0.1192 l 2.21111,-7.2135 c 0,0 17.97505,-0.8863 24.78119,-2.4826 h 0.0586 c 3.49033,-0.8277 1.51184,-4.3753 1.51184,-4.3753 -4.36293,-8.6909 -9.30735,-8.0983 -9.30735,-8.0983 -0.87986,-0.03 -1.78342,-0.044 -2.70725,-0.043 z m -160.563103,1.3224 c -0.69945,0.021 -1.49553,0.3482 -2.40447,1.1427 -2.90862,2.6013 -3.08329,18.6822 -3.49051,31.8071 -0.29085,12.8294 0.29126,20.9891 1.92007,23.0584 1.687,2.3648 7.50497,3.251 10.23906,1.1818 h 0.0586 c 2.61776,-2.0102 1.33799,-21.4021 1.33799,-21.4021 0,0 -0.98895,-21.2834 -1.33799,-25.4219 -0.23269,-4.0792 -1.74695,-6.0297 -2.91038,-7.8033 -0.79988,-1.1787 -1.87357,-2.61 -3.41238,-2.5627 z m 216.690453,13.9894 c 1.3975,0.1385 1.67005,2.17 1.67005,2.17 1.10527,9.9323 -5.99176,17.4417 -9.07491,20.2204 -1.91967,1.8327 -8.14514,5.4395 -14.5440902,6.1488 6.0499202,-12.1788 13.7298502,-21.1649 18.0345902,-25.8945 1.83243,-2.1284 3.07586,-2.7279 3.91436,-2.6447 z m -330.029223,1.3438 c 0,8.9273 0.11761,15.2525 -1.16219,32.9889 -11.0527,-4.0202 -22.5727,-10.4651 -31.9966,-20.693 0,0 -3.48901,-3.784 1.51379,-6.149 4.6539,-2.1282 14.54241,-4.9645 31.645,-6.1469 z"
     id="path2-8"
     inkscape:connector-curvature="0"
     transform="matrix(0.18499385,0,0,0.18499385,72.442786,-271.89135)"
     sodipodi:nodetypes="ccccccccccccccccccccccccccccccccccccccccccccccccccccccccccsccssssccssccssssccsssccccccccccccccccccccsccccccccccccccccccccccccccccccccccccccccccccccccccccccccccccccccccccccccccccccccccccccccccc" />
  <path
     d="m 69.414956,35.70106 c -1.25575,0.29452 -4.57222,0.45813 -4.57222,0.45813 l -0.40785,1.33076 c 0,0 1.64214,-0.14181 2.84422,-0.0218 0,0 0.38638,-0.0327 0.42932,0.43632 0.0215,0.47995 -0.0322,0.9817 -0.0322,0.9817 0,0 -0.0322,0.29452 -0.42932,0.37087 -0.46152,0.0764 -3.57406,0.21817 -3.57406,0.21817 l -0.50444,1.72348 c 0,0 -0.18246,0.39265 0.23612,0.28357 0.38638,-0.10905 3.64918,-0.74173 4.0785,-0.65446 0.45078,0.10907 0.96597,0.74175 0.8157,1.30895 -0.17173,0.68721 -3.43453,2.80336 -5.40938,2.66155 0,0 -1.04109,0.0654 -1.91046,-1.36351 -0.83716,-1.36349 0.28979,-3.92686 0.28979,-3.92686 0,0 -0.50445,-1.19987 -0.1288,-1.63618 0,0 0.21466,-0.18545 0.85864,-0.23999 l 0.80496,-1.67983 c 0,0 -0.91229,0.0546 -1.44894,-0.62174 -0.49371,-0.65446 -0.53664,-0.93808 -0.15026,-1.11262 0.40786,-0.21816 4.18583,-0.90535 6.7832,-0.81808 0,0 0.91229,-0.10909 1.71726,1.49437 0,0 0.36492,0.65449 -0.27905,0.8072 m -9.79914,6.4575 c -0.32199,0.79629 -1.21282,1.63622 -2.28611,1.12354 -1.09476,-0.5236 -2.82276,-4.10141 -2.82276,-4.10141 0,0 -0.643965,-1.33077 -0.772764,-1.28714 0,0 -0.139527,-0.26179 -0.214654,1.19989 -0.10733,1.45076 0.02148,4.27591 -0.568842,4.72312 -0.536654,0.43633 -1.180623,0.25089 -1.545544,-0.26178 -0.300523,-0.51267 -0.429315,-1.74526 -0.257592,-3.89412 0.193198,-2.14888 0.676178,-4.43954 1.287951,-5.14857 0.643978,-0.71992 1.159154,-0.19634 1.352346,0 0,0 0.826429,0.76357 2.221719,3.0215 l 0.23612,0.4145 c 0,0 1.26648,2.14887 1.39527,2.13795 0,0 0.10733,0.10908 0.1932,0.0219 0.12879,-0.0327 0.0859,-0.73083 0.0859,-0.73083 0,0 -0.23613,-2.3234 -1.41675,-6.25027 0,0 -0.17172,-0.50175 -0.0536,-0.98171 0.10733,-0.43634 0.56885,-0.21816 0.56885,-0.21816 0,0 1.78165,0.87264 2.65102,3.81779 0.85863,2.94513 0.27906,5.61758 -0.043,6.41386 m -8.747318,-7.5592 c -0.171729,0.30543 -0.246857,0.73083 -0.987428,0.85082 0,0 -7.191041,0.51268 -7.545229,1.02535 0,0 -0.236123,0.30541 0.150261,0.38177 0.407847,0.0873 2.039251,0.30543 2.812019,0.34906 0.837167,0 3.649191,0.0218 4.679545,1.30895 0,0 0.59031,0.61085 0.568841,1.99614 -0.02148,1.41805 -0.268319,1.91982 -0.815698,2.4325 -0.568842,0.47996 -5.441579,2.70516 -8.586323,-0.69812 0,0 -1.438205,-1.63618 0.504449,-2.87969 0,0 1.395275,-0.87264 4.969333,0.14179 0,0 1.07329,0.39269 1.030359,0.79629 -0.0644,0.43631 -0.890832,0.87264 -2.092915,0.85082 -1.159158,-0.0327 -2.017788,-0.59993 -1.846058,-0.50177 0.160989,0.0545 -1.255755,-0.69811 -1.695804,-0.18543 -0.429308,0.47997 -0.321984,0.76356 0.107331,1.05806 1.07329,0.63266 5.291324,0.4036 6.547072,-1.02533 0,0 0.504448,-0.57812 -0.257592,-1.04718 -0.751299,-0.43631 -2.940811,-0.70902 -3.788712,-0.74174 -0.804971,-0.0436 -3.82091,0 -4.271693,-0.79629 0,0 -0.429321,-0.56721 0.04296,-2.11612 0.493714,-1.63618 4.003367,-2.26886 5.527447,-2.39975 0,0 4.185831,-0.17453 4.969327,0.69811 0,0 0.10733,0.19634 -0.02148,0.49086 m -11.870593,9.59897 c -0.504442,0.3818 -1.577732,0.21818 -1.888989,-0.21813 -0.300516,-0.38179 -0.407846,-1.88707 -0.354187,-4.25412 0.07513,-2.42157 0.10733,-5.38852 0.643981,-5.86847 0.536639,-0.46904 0.85863,-0.0545 1.073291,0.26179 0.214654,0.32723 0.493708,0.68722 0.536638,1.43985 0.0644,0.76357 0.246858,4.69043 0.246858,4.69043 0,0 0.236122,3.57779 -0.246858,3.94865 M 40.092697,31.4252 c -1.481136,0.51267 -2.490027,0.34906 -3.348663,-0.0327 -0.37565,0.68722 -0.601044,0.89447 -0.880098,0.9381 -0.429315,0.0436 -0.804971,-0.65448 -0.85863,-0.87264 -0.08586,-0.16361 -0.289788,-0.45811 -0.04296,-1.12352 -0.837161,-0.76356 -0.901561,-1.78891 -0.751299,-2.47611 0.193192,-0.80718 1.609935,-3.8396 5.903096,-4.19954 0,0 2.10365,-0.15272 2.468565,0.98169 h 0.0644 c 0,0 2.03925,0 1.996319,1.85436 0,1.85434 -2.253911,4.16685 -4.550752,4.96312 m 1.910457,-5.31218 c -1.352344,0.21818 -3.434525,2.0507 -4.432688,3.5669 1.534808,0.2836 4.218034,0.17452 5.420117,-2.29066 0,0 0.568841,-1.54893 -0.987429,-1.27624 m -5.935293,1.19987 c -0.429315,0.70903 -0.450783,1.13443 -0.246857,1.41805 0.504449,-0.76356 1.395275,-1.96343 2.736891,-2.90151 -1.03036,0.10907 -1.899724,0.54538 -2.490034,1.48346 M 72.634836,44.1112 c -0.98743,2.46519 -1.82459,4.9631 -2.30757,8.70452 0,0 -0.10733,0.73085 -0.69764,0.49089 -0.59031,-0.21817 -1.55628,-1.19989 -1.77094,-2.5852 -0.21465,-1.81072 0.57959,-4.86495 2.20025,-8.37729 -0.47225,-0.76357 -0.80496,-1.898 -0.53664,-3.49056 0,0 0.42932,-2.94515 3.3272,-5.6067 0,0 0.34345,-0.29451 0.53664,-0.19633 0.23613,0.10906 0.13953,1.04716 -0.0536,1.5271 -0.17172,0.45814 -1.45967,2.727 -1.45967,2.727 0,0 -0.80497,1.54893 -0.57958,2.75972 1.52407,-2.37795 4.9908,-7.19926 7.13738,-5.67214 1.36308,0.98171 1.36308,4.14502 0.34346,5.97755 -0.80497,1.45076 -3.08035,4.45045 -6.11776,3.75234 m 4.46489,-7.4174 c -0.79424,0.87262 -2.21098,2.53065 -3.3272,4.77766 1.18062,-0.13089 2.32904,-0.79626 2.68322,-1.13441 0.56885,-0.51268 1.87826,-1.89799 1.67434,-3.73052 0,0 -0.1288,-0.95991 -1.03036,0.0873 m -48.083404,8.69362 c -3.799447,1.17807 -7.384233,0.63266 -9.337622,0.1091 -0.05364,0.80717 -0.139526,1.14533 -0.268325,1.27623 -0.150261,0.17453 -1.395281,0.89443 -2.082188,-0.1309 -0.300516,-0.49087 -0.450771,-1.37441 -0.536639,-2.1816 -4.400485,-2.02888 -6.439747,-5.01766 -6.504141,-5.12674 -0.107324,-0.10906 -1.1054802,-1.16716 -0.107324,-2.47611 0.93377,-1.17805 4.024842,-2.36703 6.793936,-2.83605 0.107324,-2.39975 0.364909,-4.25411 0.69764,-5.0722 0.397106,-0.98174 0.901555,-0.1091 1.352332,0.54538 0.364921,0.49085 0.59031,2.59609 0.611779,4.27593 1.803127,-0.0873 2.89788,0.0436 4.904933,0.43631 2.640295,0.45816 4.400492,1.83254 4.260965,3.38146 -0.128799,1.52712 -1.502605,2.15978 -2.039257,2.20344 -0.536639,0.0436 -1.395275,-0.35999 -1.395275,-0.35999 -0.601044,-0.2836 -0.05364,-0.54538 0.643976,-0.85081 0.772768,-0.38177 0.601044,-0.76356 0.601044,-0.76356 -0.27906,-0.87263 -3.702857,-1.45076 -7.105185,-1.45076 0,1.90889 0.07513,5.0722 0.128799,6.91565 2.382703,0.45812 4.164362,0.35996 4.164362,0.35996 0,0 8.693652,-0.25088 8.94051,-5.89029 C 33.030491,32.11248 24.068519,26.70212 17.467801,25.00048 10.877779,23.2443 7.1427376,24.4878 6.8207466,24.65144 c -0.354187,0.17452 -0.03222,0.23996 -0.03222,0.23996 0,0 0.354187,0.0545 0.998156,0.27271 0.643969,0.21814 0.128799,0.54539 0.128799,0.54539 -1.126955,0.3927 -2.382691,0.16362 -2.629554,-0.35996 -0.24687,-0.51267 0.160995,-0.98172 0.643963,-1.66892 0.450777,-0.70901 0.96596,-0.68719 0.96596,-0.68719 8.1570014,-2.89063 18.1171424,2.29067 18.1171424,2.29067 9.316159,4.77767 10.904626,10.39528 10.732903,12.57685 -0.150262,2.14887 -0.96596,5.78122 -6.708068,7.5483 m -17.92395,-7.81009 c -0.923023,0.43634 -0.279041,1.13445 -0.279041,1.13445 1.738728,1.88706 3.86384,3.07603 5.90309,3.81777 0.236123,-3.27239 0.214648,-4.43954 0.214648,-6.08665 -3.155465,0.21817 -4.980042,0.74176 -5.838697,1.13443"
     id="path2"
     inkscape:connector-curvature="0"
     style="fill:#ffffff;fill-opacity:1;stroke:none;stroke-width:0;stroke-miterlimit:4;stroke-dasharray:none;stroke-opacity:1" />
  <path
     style="fill:#ffffff;fill-opacity:1;fill-rule:evenodd;stroke:none;stroke-width:0.27666768;stroke-miterlimit:4;stroke-dasharray:none;stroke-opacity:1"
     d="m 87.623747,30.70574 c -0.34894,0 -0.65886,0.27762 -0.62985,0.6198 0.15848,1.87027 0.3031,3.58409 0.40349,5.26827 h -4.87149 c -0.34894,0 -0.62986,0.27644 -0.62986,0.6198 v 1.08466 c 0,0.34336 0.28092,0.61978 0.62986,0.61978 h 4.97975 c 0.0513,1.63929 0.0523,3.29187 -0.0393,5.06493 -0.0177,0.34292 0.28092,0.6198 0.62985,0.6198 h 1.14161 c 0.34893,0 0.60497,-0.27731 0.62985,-0.6198 0.12237,-1.68437 0.17355,-3.37624 0.14762,-5.06493 h 5.186429 c 0.34893,0 0.62985,-0.27642 0.62985,-0.61978 v -1.08466 c 0,-0.34336 -0.28092,-0.6198 -0.62985,-0.6198 h -5.284849 c -0.11111,-1.76665 -0.30823,-3.52395 -0.63969,-5.26827 -0.0641,-0.33751 -0.28091,-0.6198 -0.62985,-0.6198 z"
     id="rect3085"
     inkscape:connector-curvature="0" />
  <path
     style="fill:url(#linearGradient5438);fill-opacity:1;fill-rule:evenodd;stroke:none;stroke-width:0;stroke-miterlimit:4;stroke-dasharray:none;stroke-opacity:1;filter:url(#filter5554)"
     d="m -332.64816,1748.8852 c -81.55567,0 -150.59455,41.9627 -173.86829,99.8285 l 13.01912,8.5147 c 13.12543,-50.9298 79.79003,-96.7966 161.38596,-96.7966 88.97484,0 158.1589,74.6319 171.59909,123.4321 l 11.44421,-0.1092 c -5.36412,-40.0703 -78.1245,-134.8695 -183.58009,-134.8695 z"
     id="path3050-0"
     inkscape:connector-curvature="0"
     sodipodi:nodetypes="sccsccs"
     transform="matrix(0.18877138,0,0,0.18877138,116.27514,-327.16867)" />
  <path
     style="fill:url(#linearGradient982);fill-opacity:1;fill-rule:evenodd;stroke:#000000;stroke-width:0;stroke-miterlimit:4;stroke-dasharray:none;stroke-opacity:1"
     d="m 53.735404,2.4659237 c -15.047177,0 -27.784985,7.7422103 -32.079039,18.4185623 l 2.402055,1.57098 C 26.480089,13.058815 38.779834,4.5962937 53.834444,4.5962937 c 16.41604,0 29.18063,13.7697423 31.66038,22.7734723 l 2.11148,-0.0202 c -0.9897,-7.39305 -14.41413,-24.8836923 -33.8709,-24.8836923 z"
     id="path3050"
     inkscape:connector-curvature="0"
     sodipodi:nodetypes="sccsccs" />
</svg>
