<svg width="145" height="60" viewBox="0 0 145 60" fill="none" xmlns="http://www.w3.org/2000/svg">
<path d="M124.737 26.2072C122.314 26.7575 115.914 27.0631 115.914 27.0631L115.127 29.5494C115.127 29.5494 118.296 29.2844 120.616 29.5086C120.616 29.5086 121.361 29.4475 121.444 30.3238C121.486 31.2204 121.382 32.1579 121.382 32.1579C121.382 32.1579 121.32 32.7081 120.553 32.8507C119.663 32.9934 113.656 33.2583 113.656 33.2583L112.683 36.4782C112.683 36.4782 112.331 37.2118 113.138 37.008C113.884 36.8042 120.181 35.6223 121.009 35.7853C121.879 35.9891 122.873 37.1711 122.583 38.2308C122.252 39.5146 115.955 43.4681 112.144 43.2032C112.144 43.2032 110.135 43.3255 108.457 40.6559C106.842 38.1085 109.016 33.3195 109.016 33.3195C109.016 33.3195 108.043 31.0778 108.768 30.2626C108.768 30.2626 109.182 29.9162 110.425 29.8143L111.978 26.6759C111.978 26.6759 110.218 26.7778 109.182 25.5143C108.229 24.2916 108.147 23.7618 108.892 23.4357C109.679 23.0281 116.97 21.7443 121.983 21.9073C121.983 21.9073 123.743 21.7035 125.297 24.6992C125.297 24.6992 126.001 25.9219 124.758 26.2072H124.737ZM105.847 38.2715C105.226 39.7592 103.507 41.3284 101.436 40.3705C99.323 39.3924 95.9882 32.7081 95.9882 32.7081C95.9882 32.7081 94.7454 30.2219 94.4969 30.3034C94.4969 30.3034 94.2276 29.8143 94.0826 32.5451C93.8755 35.2554 94.1241 40.5336 92.9849 41.3691C91.9492 42.1843 90.7065 41.8378 90.0022 40.88C89.4223 39.9222 89.1737 37.6194 89.5051 33.6048C89.878 29.5901 90.81 25.3106 91.9907 23.9859C93.2334 22.6409 94.2276 23.6191 94.6005 23.9859C94.6005 23.9859 96.1953 25.4125 98.888 29.6309L99.3437 30.4053C99.3437 30.4053 101.788 34.4199 102.036 34.3995C102.036 34.3995 102.243 34.6033 102.409 34.4403C102.658 34.3792 102.575 33.0749 102.575 33.0749C102.575 33.0749 102.119 28.7342 99.8408 21.3978C99.8408 21.3978 99.5094 20.4604 99.7372 19.5637C99.9443 18.7486 100.835 19.1561 100.835 19.1561C100.835 19.1561 104.273 20.7865 105.951 26.2887C107.608 31.791 106.49 36.7839 105.868 38.2715H105.847ZM88.9873 24.149C88.6559 24.7196 88.5109 25.5144 87.0817 25.7385C87.0817 25.7385 73.2042 26.6963 72.5207 27.6541C72.5207 27.6541 72.065 28.2247 72.8107 28.3674C73.5978 28.5304 76.7461 28.938 78.2374 29.0195C79.853 29.0195 85.2797 29.0603 87.2682 31.465C87.2682 31.465 88.4074 32.6062 88.3659 35.1943C88.3245 37.8436 87.8481 38.781 86.7918 39.7388C85.694 40.6355 76.2904 44.7928 70.2216 38.4346C70.2216 38.4346 67.4461 35.3777 71.1951 33.0545C71.1951 33.0545 73.8878 31.4242 80.7851 33.3195C80.7851 33.3195 82.8564 34.0531 82.7735 34.8071C82.6492 35.6223 81.0544 36.4374 78.7345 36.3967C76.4976 36.3355 74.8405 35.2758 75.1719 35.4592C75.4826 35.5611 72.7486 34.155 71.8993 35.1128C71.0708 36.0095 71.278 36.5393 72.1065 37.0895C74.1777 38.2715 82.3178 37.8436 84.7412 35.1739C84.7412 35.1739 85.7147 34.0939 84.2441 33.2176C82.7942 32.4024 78.5688 31.8929 76.9325 31.8318C75.3791 31.7503 69.5588 31.8318 68.6889 30.3441C68.6889 30.3441 67.8604 29.2844 68.7717 26.3906C69.7245 23.3338 76.4976 22.1518 79.4388 21.9073C79.4388 21.9073 87.5167 21.5812 89.0287 23.2115C89.0287 23.2115 89.2359 23.5784 88.9873 24.1286V24.149ZM66.0791 42.062C65.1056 42.7753 63.0343 42.4696 62.4336 41.6544C61.8537 40.9412 61.6466 38.1289 61.7501 33.7067C61.8951 29.1825 61.9572 23.6395 62.9929 22.7428C64.0285 21.8665 64.6499 22.6409 65.0642 23.2319C65.4784 23.8433 66.0169 24.5158 66.0998 25.9219C66.2241 27.3484 66.5762 34.6848 66.5762 34.6848C66.5762 34.6848 67.0319 41.3691 66.0998 42.062H66.0791ZM68.1503 18.2187C65.292 19.1765 63.345 18.8708 61.688 18.1576C60.963 19.4414 60.5281 19.8286 59.9895 19.9102C59.161 19.9917 58.4361 18.6874 58.3325 18.2798C58.1668 17.9742 57.7733 17.4239 58.2497 16.1808C56.6341 14.7543 56.5098 12.8387 56.7998 11.5548C57.1726 10.0468 59.9067 4.38146 68.1918 3.70896C68.1918 3.70896 72.2515 3.42365 72.9557 5.54306H73.08C73.08 5.54306 77.0154 5.54306 76.9325 9.00746C76.9325 12.4719 72.5829 16.7922 68.1503 18.2798V18.2187ZM71.8372 8.35534C69.2274 8.76292 65.2091 12.1866 63.2829 15.0192C66.2448 15.5491 71.4229 15.3453 73.7428 10.7397C73.7428 10.7397 74.8405 7.84587 71.8372 8.35534ZM60.3831 10.597C59.5546 11.9216 59.5132 12.7164 59.9067 13.2463C60.8802 11.8197 62.5993 9.57807 65.1884 7.82549C63.2 8.02928 61.5223 8.84443 60.3831 10.597ZM130.951 41.9193C129.046 46.525 127.43 51.1917 126.498 58.1817C126.498 58.1817 126.291 59.5471 125.152 59.0987C124.012 58.6912 122.148 56.8571 121.734 54.2689C121.32 50.886 122.853 45.18 125.98 38.618C125.069 37.1914 124.427 35.072 124.945 32.0967C124.945 32.0967 125.773 26.5944 131.365 21.622C131.365 21.622 132.028 21.0718 132.401 21.2552C132.857 21.459 132.67 23.2115 132.298 24.1082C131.966 24.9641 129.481 29.2029 129.481 29.2029C129.481 29.2029 127.927 32.0967 128.362 34.3588C131.303 29.9162 137.994 20.9087 142.136 23.7618C144.767 25.5959 144.767 31.5057 142.799 34.9294C141.245 37.6398 136.854 43.244 130.993 41.9397L130.951 41.9193ZM139.609 28.0821C138.076 29.7124 135.342 32.81 133.188 37.008C135.467 36.7635 137.683 35.5204 138.366 34.8886C139.464 33.9308 141.991 31.3427 141.598 27.9191C141.598 27.9191 141.349 26.1257 139.609 28.0821V28.0821ZM46.8163 44.324C39.484 46.525 32.5659 45.506 28.7962 44.5278C28.6927 46.0359 28.527 46.6676 28.2784 46.9122C27.9884 47.2382 25.5858 48.5832 24.2601 46.6676C23.6802 45.7506 23.3902 44.0999 23.2245 42.5918C14.7323 38.8014 10.7969 33.2176 10.6726 33.0138C10.4655 32.81 8.5392 30.8332 10.4655 28.3878C12.2675 26.1869 18.2327 23.9656 23.5766 23.0893C23.7837 18.6059 24.2809 15.1415 24.9229 13.6131C25.6893 11.779 26.6628 13.4093 27.5327 14.632C28.237 15.5491 28.6719 19.4822 28.7134 22.6205C32.1931 22.4575 34.3058 22.7021 38.1791 23.4357C43.2744 24.2916 46.6713 26.8594 46.402 29.7532C46.1535 32.6062 43.5022 33.7882 42.4666 33.8697C41.431 33.9512 39.7739 33.1972 39.7739 33.1972C38.614 32.6673 39.6704 32.1782 41.0167 31.6076C42.508 30.8944 42.1766 30.1811 42.1766 30.1811C41.6381 28.5508 35.0307 27.4707 28.4648 27.4707C28.4648 31.037 28.6098 36.9469 28.7134 40.3909C33.3116 41.2468 36.7499 41.0634 36.7499 41.0634C36.7499 41.0634 53.5272 40.5947 54.0036 30.0588C54.5214 19.5026 37.2263 9.39466 24.488 6.21556C11.7704 2.93456 4.56237 5.25775 3.94098 5.56344C3.25747 5.8895 3.87885 6.01177 3.87885 6.01177C3.87885 6.01177 4.56237 6.11366 5.80513 6.52124C7.04789 6.92882 6.05368 7.54019 6.05368 7.54019C3.87885 8.27383 1.45546 7.84587 0.979069 6.86768C0.502677 5.90988 1.28976 5.03358 2.22183 3.74972C3.09176 2.42509 4.08597 2.46585 4.08597 2.46585C19.8276 -2.93455 39.049 6.74541 39.049 6.74541C57.0276 15.6714 60.0931 26.1665 59.7617 30.2422C59.4717 34.2569 57.8976 41.0431 46.8163 44.3444V44.324ZM12.2261 29.7532C10.4448 30.5683 11.6875 31.8726 11.6875 31.8726C15.043 35.3981 19.1441 37.6194 23.0795 39.0052C23.5352 32.8915 23.4938 30.711 23.4938 27.6338C17.4042 28.0413 13.8831 29.0195 12.2261 29.7532Z" fill="white"/>
</svg>
