<svg width="140" height="56" viewBox="0 0 140 56" fill="none" xmlns="http://www.w3.org/2000/svg">
<path d="M140 0H0V56H140V0Z" fill="#ED1D24"/>
<path d="M118.475 13.0502V4.47877H94.4768L90.53 33.1141L86.6246 4.47891H77.9702L78.9397 12.1198C77.9401 10.1623 74.3968 4.47891 66.5993 4.47891C66.5479 4.47557 57.9331 4.47891 57.9331 4.47891L57.8999 46.2172L51.592 4.47891L40.2577 4.47237L33.732 47.719L33.7354 4.47863H22.8878L18.9771 28.7703L15.168 4.47891H4.31689V51.4951H12.8619V28.8334L16.7489 51.4945H21.2918L25.1241 28.8334V51.4945H41.5975L42.5971 44.2599H49.2295L50.2257 51.4945L66.3986 51.5044H66.4118V51.4945H66.4219H66.432V36.233L68.4146 35.9459L72.5193 51.5044H72.5294H80.8748H80.8846L80.8812 51.4945H80.8961H80.9061L75.5196 33.2593C78.2494 31.2526 81.3315 26.1566 80.5112 21.2816V21.2784C80.521 21.3443 85.5954 51.5246 85.5954 51.5246L95.5445 51.4945L102.343 8.87823V51.4946H118.476V43.0387H110.818V32.2559H118.476V23.6713H110.818V13.0502H118.475ZM43.6037 36.8043L45.9498 16.704L48.3858 36.8043H43.6037ZM68.4424 27.5231C67.7848 27.8401 67.0991 27.9985 66.4315 27.9985V12.8753C66.4432 12.8753 66.4566 12.8722 66.4731 12.8722C67.1423 12.8689 72.1318 13.0734 72.1318 20.3543C72.1318 24.163 70.4348 26.5628 68.4424 27.5231ZM135.693 43.0322V51.488H119.955V4.47237H128.428V43.0322H135.693Z" fill="white"/>
</svg>
