<svg width="166" height="23" viewBox="0 0 166 23" fill="none" xmlns="http://www.w3.org/2000/svg">
<path d="M0.00538185 21.3699C0.0302095 20.8681 0.0868994 20.8445 1.76665 20.637L3.36958 20.4391L3.43886 20.0432C3.52068 19.5756 3.51654 10.3972 3.43203 4.90367L3.37271 1.04773L2.9326 0.916233C2.69053 0.843907 1.97006 0.746881 1.33153 0.700618C0.147854 0.61486 0.00333082 0.557615 5.24687e-06 0.173213C-0.00140063 0.0107451 0.276699 0 4.48324 0C11.1716 0 13.0929 0.215476 14.9135 1.16977C16.254 1.87244 17.1713 3.10168 17.2826 4.34456C17.3844 5.48042 16.8936 7.15038 16.1261 8.27921C15.0231 9.90169 12.6916 11.4054 10.3167 12.026C8.92572 12.3895 8.70272 12.4141 8.7043 12.2036C8.70804 11.7059 8.81058 11.61 9.7343 11.24C10.8868 10.7783 11.6511 10.2809 12.2573 9.59796C13.2494 8.4802 13.6352 7.26226 13.5737 5.44224C13.5389 4.41224 13.5052 4.23755 13.224 3.62944C12.4559 1.96836 10.8226 1.08752 8.21331 0.927135L7.16006 0.862395L7.07573 1.29726C6.98049 1.78844 6.99599 17.0619 7.09376 19.0691C7.15329 20.2912 7.1702 20.3752 7.36772 20.4305C7.4835 20.4629 8.32642 20.5588 9.24088 20.6436C10.1553 20.7285 10.9585 20.816 11.0258 20.8381C11.093 20.8602 11.148 20.991 11.148 21.1288V21.3794H6.76226C4.35009 21.3794 1.84144 21.4085 1.1875 21.4441C0.200064 21.4978 -0.000327292 21.4852 0.00538185 21.3699Z" fill="white"/>
<path d="M36.3144 21.2522C36.3152 21.1294 36.348 20.9823 36.3873 20.9252C36.4265 20.8681 36.969 20.7659 37.5928 20.6982C38.2165 20.6305 38.9381 20.5223 39.1963 20.4578C39.6656 20.3406 39.6657 20.3405 39.73 19.8488C39.8683 18.7922 39.7628 1.4502 39.6166 1.21081C39.5804 1.15144 38.855 1.01295 38.0047 0.903046C37.1544 0.793144 36.4513 0.695795 36.4423 0.686712C36.4332 0.67763 36.3957 0.548583 36.3588 0.399939L36.2918 0.129679H40.8066C43.2898 0.129679 45.6625 0.100502 46.0794 0.0648397L46.8373 0L46.7674 0.286127C46.729 0.443497 46.6678 0.602194 46.6315 0.638789C46.5952 0.675383 45.8766 0.789885 45.0345 0.893237C44.1925 0.996589 43.4709 1.11414 43.4311 1.15447C43.3313 1.25538 43.2915 14.851 43.3822 17.8818L43.4557 20.3406L43.9396 20.4614C44.2057 20.5279 44.9223 20.6261 45.532 20.6797C46.1417 20.7333 46.6529 20.7896 46.668 20.8049C46.6831 20.8202 46.7228 20.9433 46.7561 21.0784L46.8168 21.324L41.7835 21.3456C39.0152 21.3574 36.6518 21.3914 36.5315 21.4212C36.3531 21.4654 36.3131 21.4343 36.3144 21.2522Z" fill="white"/>
<path d="M85.0949 21.7138C83.419 20.3303 80.4329 17.0842 76.6098 12.49C76.1926 11.9887 75.8125 11.5785 75.7649 11.5785C75.437 11.5785 71.5111 17.6422 70.4276 19.8223L70.1258 20.4295L71.0722 20.5908C71.5927 20.6795 72.1568 20.7732 72.3257 20.7991C72.6124 20.8431 72.7491 20.9945 72.7487 21.2677C72.7485 21.3534 71.7406 21.3857 68.803 21.3941L64.8575 21.4055L64.9191 21.197C65.0202 20.8546 65.1682 20.7747 65.9268 20.6533C66.933 20.4922 67.198 20.338 68.0405 19.4239C69.0463 18.3326 73.9048 12.1453 74.9334 10.6458C74.9995 10.5494 74.8367 10.2867 74.3417 9.69083C73.9662 9.23872 72.6281 7.47208 71.3683 5.76496C70.1085 4.05784 68.774 2.30638 68.4028 1.87283C67.762 1.12452 67.6959 1.07614 67.0983 0.91883C66.7521 0.827685 66.3046 0.75009 66.1037 0.746394C65.781 0.740451 65.7386 0.711104 65.7386 0.493333C65.7386 0.357847 65.7277 0.230027 65.7143 0.209286C65.7009 0.188548 67.8259 0.145973 70.4365 0.114675C74.8723 0.0614941 75.1829 0.0687992 75.1815 0.226282C75.1786 0.548884 75.0307 0.61892 74.0121 0.779953C73.4484 0.869061 72.8667 0.974586 72.7194 1.01445L72.4516 1.08694L73.1166 2.12036C74.4394 4.17595 77.1043 7.92262 77.2484 7.92944C77.4537 7.93916 80.9039 3.00178 81.7085 1.54694C82.0013 1.01751 81.9795 1.00051 80.7168 0.776635C79.8368 0.620594 79.7728 0.593286 79.7274 0.354497C79.7008 0.214078 79.686 0.0926604 79.6947 0.0846789C79.7034 0.0766968 81.3217 0.0543788 83.291 0.0350821L86.8717 0L86.8091 0.295935C86.7748 0.4587 86.7401 0.599912 86.7322 0.609741C86.7243 0.619572 86.2837 0.717373 85.753 0.827076C84.818 1.02039 84.772 1.04262 84.2598 1.54821C83.6539 2.14636 81.0702 5.10337 79.2067 7.33141L77.9378 8.8486L78.698 9.83604C79.4528 10.8163 79.7863 11.2841 83.3131 16.3082C84.8159 18.4489 87.0437 21.5475 87.4754 22.0971C87.5514 22.1939 87.3724 22.2203 86.6403 22.2203H85.7085L85.0949 21.7138Z" fill="white"/>
<path d="M163.456 21.4976C161.823 20.2711 158.345 16.7651 154.878 12.8513L153.489 11.2832L152.084 11.3428C151.311 11.3756 150.644 11.4345 150.601 11.4737C150.507 11.5593 150.631 19.949 150.728 20.1081C150.822 20.2621 151.355 20.3677 152.731 20.5053C153.864 20.6186 153.913 20.6328 153.971 20.8668C154.005 21.0008 154.019 21.1227 154.003 21.1377C153.987 21.1528 151.651 21.181 148.813 21.2005L143.652 21.2359C143.639 21.0424 143.657 20.88 143.773 20.7236C143.84 20.6722 144.569 20.5541 145.394 20.4612C146.231 20.3669 146.924 20.243 146.962 20.1808C146.999 20.1195 147.062 19.6915 147.1 19.2297C147.178 18.2939 147.066 1.70548 146.979 1.2637C146.91 0.913997 146.575 0.804229 145.348 0.730111C143.709 0.631043 143.652 0.616188 143.652 0.288231V0L147.166 0.00359535C156.938 0.0135933 159.121 0.346994 160.653 2.0639C161.608 3.13356 161.707 4.54311 160.938 6.13196C160.365 7.31691 158.853 8.91581 157.638 9.62175L157.134 9.91427L157.485 10.5232C157.985 11.3942 160.761 15.594 161.906 17.2131C163.06 18.8455 163.668 19.6355 164.746 20.9061L165.549 21.8528L164.939 21.9605C164.603 22.0197 164.303 22.0681 164.272 22.0681C164.241 22.0681 163.873 21.8114 163.456 21.4976ZM153.191 10.188C154.539 9.91551 155.441 9.45092 156.308 8.583C157.103 7.78698 157.448 7.14517 157.669 6.04679C158.126 3.7764 156.661 1.89746 153.868 1.1746C152.801 0.898605 150.857 0.712091 150.7 0.870756C150.611 0.960811 150.574 2.17069 150.549 5.75482L150.517 10.5192L151.373 10.4508C151.844 10.4132 152.662 10.2949 153.191 10.188Z" fill="white"/>
<path d="M102.11 21.0957C102.161 20.7466 102.071 20.7792 103.691 20.5228L104.811 20.3456L105.173 19.6557C105.866 18.3356 107.322 14.715 110.284 6.94264C111.491 3.77611 112.469 1.06055 112.421 1.01181C112.398 0.988425 111.947 0.901831 111.419 0.819381C109.948 0.589793 110.02 0.615893 110.021 0.313194L110.021 0.0440546L114.659 0.0128159C118.936 -0.0159881 119.293 -0.00575136 119.236 0.144064C119.202 0.233433 119.174 0.361293 119.174 0.428197C119.174 0.50734 118.782 0.612025 118.053 0.727835C117.436 0.825733 116.909 0.941859 116.882 0.985893C116.855 1.02993 117.357 2.5656 117.997 4.3985C120.329 11.0769 122.304 16.2033 123.651 19.0739L124.212 20.2703L124.687 20.3836C125.142 20.4918 126.447 20.6811 126.783 20.6875C126.883 20.6894 126.958 20.796 126.984 20.9747L127.025 21.2589L121.907 21.3022C119.092 21.326 116.783 21.3422 116.776 21.3383C116.769 21.3343 116.783 21.1938 116.809 21.026L116.855 20.7208L118.185 20.555C119.867 20.3453 119.984 20.315 119.895 20.1109C119.784 19.8568 118.938 17.4358 118.34 15.6644C118.039 14.7701 117.572 13.4507 117.303 12.7325L116.814 11.4267H116.266C114.748 11.4267 109.775 11.7409 109.674 11.8431C109.462 12.0571 108.098 17.038 107.736 18.9169C107.6 19.6221 107.489 20.2158 107.489 20.2362C107.489 20.3116 107.955 20.4135 109.047 20.5767C110.146 20.7412 110.167 20.749 110.197 21.013L110.228 21.2818L106.643 21.2827C104.671 21.2832 102.834 21.3107 102.562 21.3439L102.065 21.4042L102.11 21.0957ZM116.447 10.2927C116.396 10.1568 116.288 9.91474 116.206 9.75473C116.066 9.48189 114.823 5.83526 113.853 2.85733C113.616 2.1281 113.407 1.51656 113.389 1.49836C113.273 1.38094 110.118 9.92255 110.118 10.3541C110.118 10.4002 111.224 10.4505 112.577 10.4659C113.929 10.4814 115.374 10.5043 115.788 10.5169L116.54 10.5397L116.447 10.2927Z" fill="white"/>
</svg>
