<svg width="119" height="58" viewBox="0 0 119 58" fill="none" xmlns="http://www.w3.org/2000/svg">
<path fill-rule="evenodd" clip-rule="evenodd" d="M33.3269 0H16.7563C13.3299 0 11.2951 1.66367 10.6495 4.99027C10.0033 8.31614 11.8408 11.9655 16.1606 15.9376C18.7794 17.9981 18.3334 18.9789 14.8204 18.8799H0V26.885H23.4586C27.331 26.2402 29.3042 24.2538 29.379 20.9272C29.4538 17.6006 27.4799 14.1749 23.4586 10.6495C21.2125 8.78781 21.6842 7.90683 24.8736 8.00586H38.6444V26.8842H47.3955V8.00586H55.9229V0H33.3269ZM54.26 26.8842L63.1035 0H76.4532L85.4464 26.8842H75.2803L73.5865 22.0436H65.599L63.9038 26.8842H54.26ZM69.8073 5.95781L65.9533 16.6081H73.3635L69.8073 5.95781Z" fill="white"/>
<path fill-rule="evenodd" clip-rule="evenodd" d="M85.0496 26.8842V0H102.55C104.71 0.198789 106.485 0.768749 107.875 1.71281C109.266 2.65615 110.283 3.92224 110.93 5.51109C111.425 7.89436 111.45 9.73114 111.003 11.0222C110.556 12.3132 109.775 13.393 108.658 14.2622C107.541 15.1307 105.939 15.8137 103.855 16.3095L105.864 18.8798H119V26.885H103.295L94.7675 18.004V26.885H85.0496V26.8842V26.8842ZM94.7675 6.70235V11.6545H101.545C101.905 11.6545 102.296 11.5217 102.718 11.2547C103.14 10.9877 103.364 10.315 103.39 9.23453C103.326 8.20464 103.074 7.52465 102.635 7.19602C102.193 6.8674 101.824 6.70309 101.527 6.70309H94.7675V6.70235V6.70235ZM19.7726 45.6071L16.9426 57.0012H8.19144L0 30.1155H8.7504L12.4364 41.7347L15.6383 30.1155H23.6816L27.4249 41.7347L29.9196 30.1155H38.67L31.9303 57.0012H23.1791L19.7726 45.6071V45.6071ZM34.6546 57.0012L43.4982 30.1155H56.8479L65.8411 57.0012H55.6742L53.9805 52.1598H45.9937L44.2985 57.0012H34.6546ZM50.2013 36.074L46.3473 46.7236H53.7575L50.2013 36.074Z" fill="white"/>
<path fill-rule="evenodd" clip-rule="evenodd" d="M108.9 38.1213L118.941 38.0795V30.0737L100.782 30.1155C97.3547 30.1155 95.3206 31.7791 94.6744 35.1058C94.0296 38.4324 95.8664 42.0817 100.186 46.0531C102.805 48.1151 102.358 49.0944 98.8453 48.9961H86.2592L84.2478 46.4257C86.334 45.9299 87.9354 45.2469 89.0533 44.3784C90.169 43.5084 90.9517 42.4301 91.3984 41.1391C91.8437 39.8466 91.8194 38.0098 91.3236 35.6273C90.6788 34.0385 89.6599 32.7731 88.2706 31.829C86.8798 30.885 85.1061 30.315 82.9451 30.1155H65.4428V57.0012H75.1622V48.1202L83.6896 57.0012H107.484C111.358 56.3549 113.33 54.3692 113.404 51.0426C113.478 47.716 111.505 44.2904 107.484 40.7657C105.239 38.904 105.709 38.0223 108.9 38.1213V38.1213ZM83.1123 41.3709C82.6898 41.6372 82.3003 41.7722 81.9387 41.7722H75.1622V36.8193H81.9203C82.2196 36.8193 82.5878 36.9829 83.028 37.3122C83.4696 37.6416 83.7212 38.3209 83.7828 39.3507C83.7571 40.4312 83.5356 41.1046 83.1123 41.3709Z" fill="white"/>
</svg>
